<?xml version="1.0" encoding="utf-8"?>
<!-- Generator: Adobe Illustrator 23.0.1, SVG Export Plug-In . SVG Version: 6.00 Build 0)  -->
<svg version="1.1" id="Capa_1" xmlns="http://www.w3.org/2000/svg" xmlns:xlink="http://www.w3.org/1999/xlink" x="0px" y="0px"
	 viewBox="0 0 330 50" style="enable-background:new 0 0 330 50;" xml:space="preserve">
<style type="text/css">
	.st0{fill:#FFFFFF;}
</style>
<g>
	<g>
		<path class="st0" d="M33.7,43.2c-0.1-1.5,0.1-3.1,0.8-4.5c0.1-0.3,11.3-24.3,11.7-25.2c0.9-1.9,1.5-3.9,1.5-6
			c0-0.6-0.1-1.3-0.2-1.9c-0.5-2.1-1.9-3.8-3.8-4.8c-2.1-1-4.6-1-6.9-0.7c-0.9,0.1-1.8,0.3-2.7,0.6C33.4,1,32.7,1.3,32,1.5
			c-1.9,0.7-3.9,0.9-5.9,0.9c-1.9,0-3.8-0.3-5.6-1c-0.7-0.3-1.4-0.5-2.1-0.7c-0.9-0.3-1.8-0.4-2.7-0.5C13.5-0.1,11.2,0,9.1,0.5
			C8.3,0.8,7.5,1,6.8,1.3C6.1,1.6,5.4,1.8,4.6,2c0,0-2.8,6.1-2.7,6.2C3,8.1,4,8,5,7.7c0.8-0.2,1.6-0.5,2.3-0.8
			c1.7-0.6,3.4-1,5.2-1.1c2.1-0.1,4.1,0.1,6.1,0.7c0.8,0.3,1.6,0.6,2.4,0.8c1.1,0.4,2.2,0.6,3.3,0.7c2.2,0.2,4.4,0.1,6.5-0.4
			c1.6-0.4,3.2-1.2,4.9-1.6c1.6-0.3,4.1-0.7,4.9,1.2c0.4,0.9,0.2,1.8-0.2,2.6c-0.7,0-1.5,0-2.2,0c-1.6,0.1-3.2,0.4-4.8,1
			C32,11.5,30.6,12,29,12.2c-2.1,0.3-4.4,0.2-6.5-0.2c-1.4-0.3-2.7-0.9-4.1-1.4c-2-0.6-4-0.7-6.1-0.6c-1.7,0.1-3.4,0.5-5,1.1
			c-0.8,0.3-1.7,0.6-2.5,0.8c-0.6,0.1-2.1,0.4-2.1,0.4L0,18.2c1.9,0,3.9-0.1,5.7-0.7c1.4-0.4,2.7-1,4.1-1.3c2.1-0.4,4.3-0.5,6.4-0.2
			c1.6,0.2,3,0.8,4.5,1.3c1.5,0.5,3,0.8,4.5,0.9c2.1,0.1,4.2,0,6.3-0.7c1.4-0.4,2.7-1,4.1-1.3c0.7-0.2,1.5-0.3,2.2-0.3
			c-3.2,6.9-8.6,18.5-8.9,19.1c-0.7,1.4-1,2.9-1,4.4c0,4.3,2.8,8.3,6.9,9.7c0.9,0.3,1.9,0.5,2.9,0.5C35.4,48.3,33.9,45.9,33.7,43.2z
			"/>
		<path class="st0" d="M64,13.9c-0.3-1.4-1.1-2.7-2.3-3.5c-0.6-0.4-1.2-0.7-1.9-0.8c-0.9-0.2-1.8-0.1-2.8,0
			c-0.7,0.1-1.4,0.2-2.1,0.4c-1.5,0.4-3,0.8-4.6,0.9c-0.2,0-0.8,0-1,0c-0.3,0.9-0.6,1.7-1,2.6c-0.4,0.9-0.8,1.7-1.2,2.6
			c-0.1,0.2-0.2,0.4-0.3,0.6c1.3,0.1,2.7,0.1,4,0c1.3-0.2,2.5-0.6,3.8-0.9c0.2-0.1,0.4-0.1,0.6-0.1c0.3-0.1,0.6-0.1,0.9,0
			c0.5,0.2,0.4,0.8,0.2,1.1c-0.3,0.6-10.7,22.9-11,23.6c-0.3,0.6-0.6,1.2-0.9,1.7c-1.5,2.2-3.8,3.9-6.4,4.5
			c-0.6,0.1-1.2,0.2-1.7,0.2c2.1,2.3,5.3,3.4,8.4,2.7c1.5-0.3,2.9-1.1,4-2.1c0.5-0.5,1-1.1,1.4-1.7c0.2-0.3,0.4-0.6,0.5-0.9
			C51,44.2,63.2,18,63.5,17.5C64,16.3,64.2,15.1,64,13.9z"/>
	</g>
	<g>
		<path class="st0" d="M81.5,27.5c-2.1,0-3.7-0.5-4.6-1.6c-0.9-1-1.4-2.7-1.4-5V9.6h3.9v11.3c0,1.2,0.1,2.1,0.2,2.8
			c0.1,0.7,0.8,1,2,1c1,0,1.6-0.3,1.8-0.8c0.2-0.6,0.3-1.6,0.3-3.1V9.6h3.9v11.3c0,2.3-0.5,4-1.4,5C85.4,27,83.8,27.5,81.5,27.5
			L81.5,27.5z M99.3,27.2l-5.4-11.4v11.4h-3.2V9.6h4l5,11v-11h3.2v17.6H99.3L99.3,27.2z M106,27.2V9.6h3.9v17.6H106L106,27.2z
			 M120,27.2h-3.8l-4.6-17.6h4.2l2.5,13.5l2.8-13.5h3.7L120,27.2L120,27.2z M126.6,27.2V9.6h9.3v2.7h-5.3v4.5h4.9v2.7h-4.9v5h5.3
			v2.7H126.6L126.6,27.2z M146.8,27.8l-2.2-6.3c-0.3-0.8-0.6-1.4-0.8-1.7c-0.2-0.3-0.6-0.4-1.2-0.4h-0.4v7.7h-3.9V9.6h5.7
			c1.9,0,3.2,0.4,4.1,1.3c0.9,0.8,1.3,1.9,1.3,3.2c0,1.2-0.4,2.1-1.1,2.8c-0.7,0.7-1.6,1.1-2.6,1.3c1.3,0.3,2.2,1.1,2.8,2.6l1.9,5.2
			L146.8,27.8L146.8,27.8z M143.2,12.3h-1v4.6l1.1,0c0.6,0,1.1-0.2,1.4-0.6c0.4-0.4,0.5-1,0.5-1.7c0-0.7-0.2-1.2-0.6-1.6
			C144.3,12.5,143.8,12.3,143.2,12.3L143.2,12.3z M155.7,27.5c-0.7,0-1.4-0.1-2.2-0.2c-0.7-0.2-1.4-0.4-2-0.6v-3.2
			c0.4,0.4,0.9,0.7,1.6,0.9c0.7,0.3,1.4,0.4,2.1,0.4c0.8,0,1.4-0.2,1.9-0.5c0.4-0.4,0.7-0.9,0.7-1.7c0-1-0.5-1.8-1.6-2.5
			c-1.1-0.7-2.1-1.3-3.1-2c-1.1-1-1.7-2.2-1.7-3.8c0-1.7,0.5-3,1.6-3.8c1.1-0.8,2.5-1.2,4.2-1.2c1,0,1.8,0.1,2.4,0.3
			c0.6,0.2,1.2,0.4,1.7,0.6l-1.4,2.6c-0.2-0.2-0.5-0.4-0.9-0.5c-0.4-0.2-0.8-0.3-1.5-0.3c-0.5,0-1,0.2-1.4,0.5
			c-0.4,0.3-0.6,0.8-0.6,1.5c0,0.8,0.5,1.6,1.6,2.3c1.1,0.7,2.1,1.4,3.1,2.1c1.1,1,1.7,2.2,1.7,3.6c0,1.9-0.6,3.3-1.8,4.2
			C159,27.1,157.5,27.5,155.7,27.5L155.7,27.5z M164.5,27.2V9.6h3.9v17.6H164.5L164.5,27.2z M175.8,27.2h-4.3V9.6l4.8-0.1
			c3.1,0,5.2,0.7,6.5,2.2c1.3,1.5,1.9,3.6,1.9,6.2c0,3.2-0.7,5.5-2.2,7C180.9,26.5,178.7,27.2,175.8,27.2L175.8,27.2z M176.4,12.3
			h-1v12.2h0.7c1.6,0,2.7-0.5,3.3-1.5c0.6-1,0.9-2.7,0.9-5c0-2-0.3-3.5-0.9-4.4C178.7,12.7,177.7,12.3,176.4,12.3L176.4,12.3z
			 M194.9,27.2l-1.1-4.3h-4.2l-1.2,4.3h-3.5l5.3-17.6h3.8l5.1,17.6H194.9L194.9,27.2z M191.7,14.2l-1.5,5.9l2.8,0L191.7,14.2
			L191.7,14.2z M205,27.2h-4.3V9.6l4.8-0.1c3.1,0,5.2,0.7,6.5,2.2c1.3,1.5,1.9,3.6,1.9,6.2c0,3.2-0.7,5.5-2.2,7
			C210.2,26.5,208,27.2,205,27.2L205,27.2z M205.6,12.3h-1v12.2h0.7c1.6,0,2.7-0.5,3.3-1.5c0.6-1,0.9-2.7,0.9-5c0-2-0.3-3.5-0.9-4.4
			C208,12.7,207,12.3,205.6,12.3L205.6,12.3z M80,49.7h-4.3V32.1l4.8-0.1c3.1,0,5.2,0.7,6.5,2.2c1.3,1.5,1.9,3.6,1.9,6.2
			c0,3.2-0.7,5.5-2.2,7C85.1,49,82.9,49.7,80,49.7L80,49.7z M80.6,34.8h-1V47h0.7c1.6,0,2.7-0.5,3.3-1.5c0.6-1,0.9-2.7,0.9-5
			c0-2-0.3-3.5-0.9-4.4C82.9,35.2,81.9,34.8,80.6,34.8L80.6,34.8z M91.1,49.7V32.1h9.3v2.7H95v4.5h4.9V42H95v5h5.3v2.7H91.1
			L91.1,49.7z M107.2,49.7V32.1h3.9V47h4.6v2.7H107.2L107.2,49.7z M126.8,49.7l-1.1-4.3h-4.2l-1.2,4.3h-3.5l5.3-17.6h3.8l5.1,17.6
			H126.8L126.8,49.7z M123.6,36.7l-1.5,5.9l2.8,0L123.6,36.7L123.6,36.7z M146.8,35.2c-0.1-0.1-0.4-0.2-0.7-0.4
			c-0.4-0.2-0.9-0.3-1.5-0.3c-1.3,0-2.3,0.6-3,1.7c-0.7,1.2-1,2.6-1,4.4c0,2.2,0.4,3.8,1.1,5c0.7,1.1,1.6,1.7,2.8,1.7
			c1,0,1.8-0.1,2.3-0.4c0.5-0.2,0.9-0.5,1.2-0.8v3.1c-0.3,0.2-0.7,0.3-1.2,0.5c-0.5,0.2-1.3,0.2-2.3,0.2c-2.6,0-4.6-0.8-5.9-2.4
			c-1.3-1.6-2-3.9-2-6.7c0-2.9,0.7-5.1,2-6.7c1.3-1.6,3.3-2.4,5.8-2.4c1.1,0,1.9,0.1,2.5,0.2c0.6,0.2,1.1,0.3,1.6,0.5L146.8,35.2
			L146.8,35.2z M156.3,50c-2.1,0-3.7-0.5-4.6-1.6c-0.9-1-1.4-2.7-1.4-5V32.1h3.9v11.3c0,1.2,0.1,2.1,0.2,2.8c0.1,0.7,0.8,1,2,1
			c1,0,1.6-0.3,1.8-0.8c0.2-0.6,0.3-1.6,0.3-3.1V32.1h3.9v11.3c0,2.3-0.5,4-1.4,5C160.1,49.5,158.5,50,156.3,50L156.3,50z
			 M164.8,49.7V32.1h9.3v2.7h-5.3v4.5h4.9V42h-4.9v5h5.3v2.7H164.8L164.8,49.7z M184.4,49.7l-5.4-11.4v11.4h-3.2V32.1h4l5,11v-11
			h3.2v17.6H184.4L184.4,49.7z M200.2,35.2c-0.1-0.1-0.4-0.2-0.7-0.4c-0.4-0.2-0.9-0.3-1.5-0.3c-1.3,0-2.3,0.6-3,1.7
			c-0.7,1.2-1,2.6-1,4.4c0,2.2,0.4,3.8,1.1,5c0.7,1.1,1.6,1.7,2.8,1.7c1,0,1.8-0.1,2.3-0.4c0.5-0.2,0.9-0.5,1.2-0.8v3.1
			c-0.3,0.2-0.7,0.3-1.2,0.5c-0.5,0.2-1.3,0.2-2.3,0.2c-2.6,0-4.6-0.8-5.9-2.4c-1.3-1.6-2-3.9-2-6.7c0-2.9,0.7-5.1,2-6.7
			c1.3-1.6,3.3-2.4,5.8-2.4c1.1,0,1.9,0.1,2.5,0.2c0.6,0.2,1.1,0.3,1.6,0.5L200.2,35.2L200.2,35.2z M212.5,49.7l-1.1-4.3h-4.2
			l-1.2,4.3h-3.5l5.3-17.6h3.8l5.1,17.6H212.5L212.5,49.7z M209.3,36.7l-1.5,5.9l2.8,0L209.3,36.7L209.3,36.7z M227.7,49.7h-4.3
			V32.1l4.8-0.1c3.1,0,5.2,0.7,6.5,2.2c1.3,1.5,1.9,3.6,1.9,6.2c0,3.2-0.7,5.5-2.2,7C232.9,49,230.7,49.7,227.7,49.7L227.7,49.7z
			 M228.3,34.8h-1V47h0.7c1.6,0,2.7-0.5,3.3-1.5c0.6-1,0.9-2.7,0.9-5c0-2-0.3-3.5-0.9-4.4C230.7,35.2,229.7,34.8,228.3,34.8
			L228.3,34.8z M238.2,49.7V32.1h9.3v2.7h-5.3v4.5h4.9V42h-4.9v5h5.3v2.7H238.2L238.2,49.7z M249.9,49.7V32.1h3.9V47h4.6v2.7H249.9
			L249.9,49.7z M270.2,42.9h-1v6.8h-3.9V32.1h5c2,0,3.5,0.5,4.5,1.4c1,0.9,1.5,2.2,1.5,3.9c0,1.7-0.5,3-1.5,4
			C273.7,42.4,272.2,42.9,270.2,42.9L270.2,42.9z M270,34.8h-0.9v5.4h0.9c0.7,0,1.3-0.2,1.6-0.6c0.3-0.4,0.5-1.1,0.5-2.1
			c0-0.8-0.2-1.5-0.5-1.9C271.3,35,270.8,34.8,270,34.8L270,34.8z M278.7,49.7V32.1h3.9V47h4.6v2.7H278.7L278.7,49.7z M298.9,49.7
			l-1.1-4.3h-4.2l-1.2,4.3h-3.5l5.3-17.6h3.8l5.1,17.6H298.9L298.9,49.7z M295.7,36.7l-1.5,5.9l2.8,0L295.7,36.7L295.7,36.7z
			 M309.6,34.8v14.9h-3.9V34.8h-3.6v-2.7h11.2v2.7H309.6L309.6,34.8z M322.3,49.7l-1.1-4.3H317l-1.2,4.3h-3.5l5.3-17.6h3.8l5.1,17.6
			H322.3L322.3,49.7z M319.2,36.7l-1.5,5.9l2.8,0L319.2,36.7L319.2,36.7z"/>
	</g>
</g>
</svg>
