<?xml version="1.0" encoding="utf-8"?>
<!-- Generator: Adobe Illustrator 23.0.1, SVG Export Plug-In . SVG Version: 6.00 Build 0)  -->
<svg version="1.1" id="Capa_1" xmlns="http://www.w3.org/2000/svg" xmlns:xlink="http://www.w3.org/1999/xlink" x="0px" y="0px"
	 viewBox="0 0 48 48" style="enable-background:new 0 0 48 48;" xml:space="preserve">
<style type="text/css">
	.st0{fill:#5F9F71;}
	.st1{fill:#195D96;}
</style>
<g>
	<g>
		<path class="st0" d="M35.59,9.62c-0.37-1.58-1.42-2.87-2.88-3.56c-1.59-0.75-3.45-0.77-5.16-0.54c-0.68,0.09-1.35,0.24-2,0.46
			c-0.54,0.18-1.06,0.39-1.6,0.58c-1.42,0.49-2.9,0.67-4.41,0.65c-1.45-0.02-2.84-0.26-4.2-0.75c-0.53-0.19-1.05-0.4-1.59-0.56
			c-0.66-0.2-1.35-0.34-2.04-0.41C10.09,5.31,8.38,5.36,6.79,5.8c-0.58,0.16-1.13,0.37-1.7,0.58c-0.53,0.2-1.07,0.38-1.63,0.51
			c0,0-2.07,4.6-2.03,4.65c0.78-0.05,1.55-0.16,2.3-0.36c0.59-0.16,1.17-0.38,1.75-0.59c1.27-0.47,2.56-0.75,3.92-0.81
			c1.55-0.06,3.1,0.06,4.58,0.54c0.59,0.19,1.17,0.43,1.76,0.63c0.81,0.27,1.63,0.46,2.48,0.54c1.62,0.17,3.31,0.11,4.89-0.32
			c1.23-0.34,2.39-0.9,3.65-1.16c1.22-0.25,3.08-0.53,3.68,0.92c0.36,0.88,0,1.76-0.38,2.56c-0.61,1.31-8.15,17.47-8.45,18.11
			c-0.49,1.05-0.78,2.16-0.78,3.32c-0.03,3.26,2.1,6.24,5.18,7.29c0.71,0.24,1.46,0.38,2.21,0.4c-1.69-1.05-2.82-2.86-3-4.85
			c-0.11-1.15,0.11-2.31,0.6-3.36c0.09-0.19,8.5-18.23,8.8-18.87c0.66-1.41,1.16-2.9,1.15-4.48C35.76,10.57,35.7,10.09,35.59,9.62z"
			/>
	</g>
	<g>
		<path class="st1" d="M47.93,15.83c-0.21-1.05-0.84-2-1.73-2.6c-0.43-0.29-0.92-0.49-1.43-0.6c-0.67-0.14-1.38-0.1-2.06-0.02
			c-0.53,0.06-1.05,0.15-1.56,0.28c-1.15,0.29-2.27,0.62-3.46,0.69c-0.15,0.01-0.59,0.02-0.73,0.03c-0.2,0.66-0.46,1.3-0.75,1.93
			c-0.3,0.64-0.6,1.28-0.89,1.91c-0.07,0.14-0.13,0.28-0.2,0.42c1.01,0.1,2.03,0.11,3.03-0.03c0.96-0.14,1.88-0.44,2.83-0.66
			c0.16-0.04,0.32-0.07,0.48-0.1c0.22-0.04,0.46-0.08,0.67,0.01c0.35,0.16,0.29,0.57,0.16,0.86c-0.21,0.47-8.01,17.17-8.23,17.65
			c-0.21,0.45-0.42,0.89-0.7,1.31c-1.09,1.62-2.86,2.93-4.77,3.37c-0.42,0.1-0.87,0.17-1.3,0.14c1.55,1.76,3.99,2.56,6.28,2.06
			c1.12-0.24,2.16-0.79,3-1.57c0.4-0.37,0.76-0.79,1.06-1.25c0.14-0.22,0.26-0.45,0.38-0.69c0.22-0.48,9.36-20.06,9.56-20.5
			C47.95,17.63,48.11,16.73,47.93,15.83z"/>
	</g>
	<path class="st1" d="M26.64,17.5c0.54-0.12,1.1-0.2,1.66-0.24c0.91-1.96,1.6-3.43,1.77-3.79c0.09-0.19,0.17-0.38,0.25-0.58
		c-0.55-0.03-1.11-0.03-1.67-0.01c-1.22,0.05-2.42,0.3-3.56,0.71c-1.11,0.4-2.19,0.8-3.37,0.95c-1.59,0.21-3.27,0.18-4.84-0.17
		c-1.06-0.24-2.05-0.7-3.09-1.02c-1.47-0.45-3.03-0.56-4.56-0.48c-1.3,0.07-2.52,0.35-3.74,0.8c-0.62,0.23-1.24,0.46-1.88,0.63
		c-0.41,0.11-1.56,0.28-1.56,0.28L0,19.03c1.45,0.04,2.9-0.1,4.29-0.55c1.03-0.33,2.02-0.77,3.08-1c1.55-0.32,3.21-0.35,4.77-0.13
		c1.17,0.16,2.25,0.57,3.35,0.97c1.09,0.39,2.24,0.63,3.4,0.68c1.58,0.08,3.17-0.03,4.69-0.51C24.6,18.18,25.58,17.73,26.64,17.5z"
		/>
</g>
</svg>
