<?xml version="1.0" encoding="utf-8"?>
<!-- Generator: Adobe Illustrator 23.0.1, SVG Export Plug-In . SVG Version: 6.00 Build 0)  -->
<svg version="1.1" id="Capa_1" xmlns="http://www.w3.org/2000/svg" xmlns:xlink="http://www.w3.org/1999/xlink" x="0px" y="0px"
	 viewBox="0 0 47 12" style="enable-background:new 0 0 47 12;" xml:space="preserve">
<style type="text/css">
	.st0{fill:#CCCCCC;}
</style>
<g>
	<g>
		<path class="st0" d="M4.26,5.39H2.81V4.43c0-0.36,0.24-0.44,0.4-0.44c0.17,0,1.02,0,1.02,0V2.42L2.83,2.42
			c-1.57,0-1.92,1.17-1.92,1.92v1.05H0V7h0.9c0,2.08,0,4.58,0,4.58h1.9c0,0,0-2.53,0-4.58h1.29L4.26,5.39z"/>
	</g>
	<g>
		<g>
			<path class="st0" d="M41.15,11.17c-1.33-0.04-2.6-0.07-3.87-0.12c-0.27-0.01-0.55-0.05-0.82-0.12c-0.5-0.12-0.85-0.42-1.02-0.91
				c-0.14-0.4-0.19-0.81-0.23-1.22c-0.08-0.98-0.08-1.95-0.04-2.93c0.02-0.55,0.04-1.11,0.18-1.64c0.09-0.32,0.2-0.63,0.46-0.86
				c0.27-0.24,0.59-0.39,0.96-0.41c1-0.05,1.99-0.11,2.99-0.12c1.34-0.01,2.69,0,4.04,0.03c0.58,0.01,1.17,0.04,1.74,0.12
				c0.53,0.07,0.92,0.36,1.13,0.88c0.16,0.39,0.22,0.81,0.26,1.23c0.09,1.05,0.09,2.1,0.04,3.16c-0.03,0.53-0.05,1.07-0.2,1.59
				c-0.17,0.6-0.54,0.99-1.15,1.13c-0.24,0.05-0.48,0.07-0.73,0.08C43.62,11.09,42.35,11.13,41.15,11.17z M39.86,8.51
				c1.06-0.55,2.12-1.1,3.19-1.65c-1.07-0.56-2.12-1.11-3.19-1.67C39.86,6.31,39.86,7.4,39.86,8.51z"/>
		</g>
	</g>
	<g>
		<g>
			<path class="st0" d="M26.6,4.4c-1.41,0-2.58,1.15-2.58,2.58c0,1.43,1.15,2.58,2.58,2.58c1.43,0,2.58-1.17,2.58-2.58
				S28.01,4.4,26.6,4.4z M26.6,8.63c-0.91,0-1.65-0.75-1.65-1.65c0-0.91,0.75-1.65,1.65-1.65c0.91,0,1.65,0.75,1.65,1.65
				C28.25,7.89,27.51,8.63,26.6,8.63z"/>
			<path class="st0" d="M29.28,3.75c0.32,0,0.58,0.26,0.58,0.58c0,0.32-0.26,0.58-0.58,0.58c-0.32,0-0.59-0.26-0.59-0.58
				C28.69,4.02,28.96,3.75,29.28,3.75z"/>
			<path class="st0" d="M30.79,2.83C30.27,2.28,29.52,2,28.68,2h-4.15c-1.75,0-2.92,1.17-2.92,2.92v4.13c0,0.87,0.28,1.61,0.85,2.16
				c0.55,0.52,1.27,0.79,2.1,0.79h4.11c0.87,0,1.59-0.28,2.12-0.79c0.54-0.52,0.83-1.27,0.83-2.14V4.92
				C31.6,4.08,31.32,3.35,30.79,2.83z M30.71,9.08c0,0.62-0.22,1.13-0.58,1.47c-0.36,0.34-0.87,0.52-1.47,0.52h-4.11
				c-0.61,0-1.11-0.18-1.47-0.52c-0.36-0.36-0.54-0.87-0.54-1.49V4.92c0-0.6,0.18-1.11,0.54-1.47c0.34-0.34,0.87-0.52,1.47-0.52
				h4.15c0.61,0,1.11,0.18,1.47,0.54c0.34,0.36,0.54,0.87,0.54,1.45V9.08L30.71,9.08z"/>
		</g>
	</g>
	<g>
		<path class="st0" d="M18.06,3.82c-0.38,0.17-0.78,0.28-1.21,0.33c0.43-0.26,0.77-0.67,0.93-1.16c-0.41,0.24-0.86,0.42-1.34,0.51
			c-0.39-0.41-0.93-0.66-1.54-0.66c-1.16,0-2.11,0.94-2.11,2.1c0,0.16,0.02,0.32,0.06,0.48c-1.75-0.09-3.3-0.93-4.34-2.2
			C8.33,3.53,8.23,3.89,8.23,4.28c0,0.73,0.37,1.37,0.94,1.75C8.82,6.02,8.5,5.92,8.21,5.76c0,0.01,0,0.02,0,0.03
			c0,1.02,0.72,1.87,1.69,2.06C9.73,7.9,9.54,7.93,9.35,7.93c-0.13,0-0.27-0.01-0.39-0.04C9.22,8.73,10,9.33,10.92,9.35
			c-0.72,0.56-1.63,0.9-2.61,0.9c-0.17,0-0.34-0.01-0.5-0.03c0.93,0.6,2.04,0.94,3.23,0.94c3.87,0,5.98-3.21,5.98-5.99
			c0-0.09,0-0.18,0-0.27C17.42,4.61,17.77,4.24,18.06,3.82z"/>
	</g>
</g>
</svg>
